; NON-PLATED HOLES START AT T1
; THROUGH (PLATED) HOLES START AT T100
M48
INCH
T1C0.118110
T2C0.058000
T3C0.044000
T4C0.070000
T100C0.015748
T101C0.090000
T102C0.053000
T103C0.042000
T104C0.052972
T105C0.045046
T106C0.036000
T107C0.038000
T108C0.035000
T109C0.045030
T110C0.040639
T111C0.047244
%
T1
X007775Y001187
X030649Y001187
X042185Y018156
X042224Y022959
T2
X042727Y006965
X042727Y008871
T3
X041082Y015085
X044034Y017053
X044034Y013117
X043050Y017053
X043050Y013117
T4
X043925Y008986
X043925Y006840
T100
X028917Y022802
X011240Y023707
X015059Y009140
X006200Y009140
X013996Y010912
X023051Y022802
X001681Y010820
X008090Y023786
X027618Y023432
X017460Y013825
X016673Y013865
X025059Y023707
X020767Y023707
X009665Y023786
X012815Y023707
X017539Y023707
X000452Y019337
X015846Y013865
X015019Y013865
X026681Y023709
X015964Y023707
X022263Y023707
X011555Y002762
X001121Y018586
X019114Y023707
X014389Y023707
T101
X042224Y022908
X042224Y018168
T102
X041082Y017053
X041082Y014101
X041082Y013118
T103
X002382Y004376
X002382Y008313
X004350Y008313
X004350Y004376
X004350Y006345
X002382Y006345
T104
X041082Y016069
X043050Y015085
T105
X002185Y015833
X002185Y011581
T106
X040374Y020046
X041154Y021030
X040374Y021030
X041154Y020046
T107
X033988Y011411
X037988Y004416
X004917Y022684
X024988Y006916
X042988Y004416
X028988Y004416
X027988Y011411
X039988Y011411
X039988Y004416
X031988Y004416
X042988Y011411
X006917Y022684
X032988Y004416
X025988Y004416
X031988Y011411
X029988Y011411
X032988Y011411
X024988Y008916
X043988Y011411
X034988Y011411
X036988Y004416
X037988Y011411
X005917Y022684
X009917Y022684
X024988Y007916
X026988Y004416
X041988Y011411
X002917Y022684
X038988Y011411
X025988Y011411
X006925Y011817
X008917Y022684
X041988Y004416
X001917Y022684
X033988Y004416
X024988Y011411
X043988Y004416
X026988Y011411
X035988Y004416
X034988Y004416
X005925Y011817
X003917Y022684
X030988Y011411
X030988Y004416
X000917Y022684
X027988Y004416
X038988Y004416
X035988Y011411
X040988Y004416
X007917Y022684
X028988Y011411
X036988Y011411
X024988Y004416
X029988Y004416
X040988Y011411
T108
X014385Y008298
X021944Y008298
X017219Y004298
X020054Y004298
X019109Y008298
X014385Y004298
X012495Y008298
X012495Y004298
X020999Y004298
X009660Y004298
X010605Y008298
X013440Y008298
X018164Y004298
X018164Y008298
X006825Y008298
X017219Y008298
X011550Y008298
X022888Y008298
X020054Y008298
X015329Y004298
X008715Y004298
X009660Y008298
X016274Y004298
X020999Y008298
X013440Y004298
X008715Y008298
X010605Y004298
X021944Y004298
X011550Y004298
X022888Y004298
X006825Y004298
X015329Y008298
X016274Y008298
X019109Y004298
X007770Y008298
X007770Y004298
T109
X002185Y017802
X002185Y013550
T110
X016731Y001699
X011731Y000699
X026731Y001699
X012731Y000699
X014731Y001699
X014731Y000699
X028731Y000699
X010731Y001699
X020731Y001699
X028731Y001699
X012731Y001699
X025731Y000699
X023731Y000699
X016731Y000699
X018731Y001699
X010731Y000699
X017731Y000699
X025731Y001699
X018731Y000699
X026731Y000699
X015731Y000699
X015731Y001699
X019731Y001699
X021731Y001699
X009731Y001699
X022731Y001699
X021731Y000699
X013731Y001699
X023731Y001699
X027731Y000699
X024731Y001699
X011731Y001699
X020731Y000699
X027731Y001699
X017731Y001699
X009731Y000699
X024731Y000699
X013731Y000699
X022731Y000699
X019731Y000699
T111
X031082Y022920
X028153Y017605
X036988Y022920
X028153Y018605
X034563Y014101
X038823Y018605
X030082Y022920
X035988Y022920
X032563Y014101
X033563Y014101
X038823Y017605
T00
M30
