; NON-PLATED HOLES START AT T1
; THROUGH (PLATED) HOLES START AT T100
M48
INCH
T1C0.058000
T2C0.044000
T3C0.118110
T4C0.070000
T100C0.038000
T101C0.053000
T102C0.040639
T103C0.015748
T104C0.035000
T105C0.042000
T106C0.036000
T107C0.052972
T108C0.047244
T109C0.090000
T110C0.038189
%
T1
X042727Y008871
X042727Y006965
T2
X043050Y013117
X044034Y013117
X041082Y015085
X044034Y017053
X043050Y017053
T3
X042185Y018156
X030649Y001187
X042224Y022959
X007775Y001187
T4
X043925Y006840
X043925Y008986
T100
X030988Y004416
X025988Y011411
X005917Y022684
X000917Y022684
X026988Y004416
X026988Y011411
X040988Y011411
X038988Y011411
X039988Y004416
X034988Y011411
X037988Y004416
X024988Y008916
X041988Y004416
X001917Y022684
X041988Y011411
X029988Y004416
X007917Y022684
X006712Y016188
X042988Y004416
X024988Y004416
X035988Y004416
X036988Y011411
X031988Y011411
X003917Y022684
X024988Y006916
X034988Y004416
X043988Y011411
X027988Y011411
X033988Y004416
X024988Y007916
X031988Y004416
X042988Y011411
X032988Y011411
X027988Y004416
X008917Y022684
X006712Y017188
X036988Y004416
X043988Y004416
X033988Y011411
X038988Y004416
X035988Y011411
X030988Y011411
X009917Y022684
X028988Y004416
X004917Y022684
X006917Y022684
X028988Y011411
X029988Y011411
X037988Y011411
X024988Y011411
X002917Y022684
X025988Y004416
X040988Y004416
X032988Y004416
X039988Y011411
T101
X041082Y014101
X041082Y017053
X041082Y013118
T102
X009731Y001699
X026731Y001699
X025731Y001699
X017731Y001699
X011731Y001699
X023731Y001699
X018731Y001699
X019731Y001699
X020731Y001699
X022731Y000699
X015731Y000699
X027731Y001699
X016731Y000699
X028731Y001699
X013731Y000699
X010731Y000699
X017731Y000699
X028731Y000699
X020731Y000699
X015731Y001699
X025731Y000699
X018731Y000699
X010731Y001699
X027731Y000699
X012731Y001699
X024731Y000699
X026731Y000699
X023731Y000699
X014731Y000699
X024731Y001699
X022731Y001699
X021731Y000699
X021731Y001699
X019731Y000699
X009731Y000699
X013731Y001699
X011731Y000699
X012731Y000699
X014731Y001699
X016731Y001699
T103
X028917Y022802
X009665Y023786
X015846Y013865
X008090Y023786
X017539Y023707
X017460Y013825
X015964Y023707
X014389Y023707
X006240Y009140
X015059Y009140
X027618Y023432
X025059Y023707
X026681Y023709
X016673Y013865
X020767Y023707
X011240Y023707
X012815Y023707
X015019Y013865
X011555Y002762
X023051Y022802
X019114Y023707
X022263Y023707
T104
X019109Y004298
X020054Y008298
X012495Y008298
X006825Y004298
X008715Y004298
X022888Y008298
X021944Y004298
X008715Y008298
X007770Y004298
X012495Y004298
X007770Y008298
X018164Y004298
X017219Y008298
X017219Y004298
X015329Y008298
X011550Y004298
X021944Y008298
X020999Y008298
X010605Y004298
X020999Y004298
X006825Y008298
X009660Y008298
X016274Y004298
X019109Y008298
X013440Y004298
X016274Y008298
X011550Y008298
X015329Y004298
X020054Y004298
X014385Y004298
X013440Y008298
X009660Y004298
X018164Y008298
X010605Y008298
X014385Y008298
X022888Y004298
T105
X004114Y016621
X004114Y014652
X002145Y012683
X004114Y012683
X002145Y016621
X002145Y014652
T106
X041154Y020046
X040374Y021030
X041154Y021030
X040374Y020046
T107
X043050Y015085
X041082Y016069
T108
X032563Y014101
X030082Y022920
X028153Y018605
X036988Y022920
X033563Y014101
X038823Y018605
X034563Y014101
X038823Y017605
X031082Y022920
X028153Y017605
X035988Y022920
T109
X042224Y018168
X042224Y022908
T110
X007760Y013558
X006760Y013558
X011760Y010558
X010760Y010558
X010760Y013558
X011760Y013558
X012760Y010558
X008760Y010558
X009760Y010558
X013760Y013558
X009760Y013558
X013760Y010558
X012760Y013558
X007760Y010558
X008760Y013558
X006760Y010558
T00
M30
